<svg xml:space="preserve" style="enable-background:new 0 0 850 600;" viewBox="0 0 850 600" y="0px" x="0px" xmlns:xlink="http://www.w3.org/1999/xlink" xmlns="http://www.w3.org/2000/svg" id="Layer_1" version="1.1">
<style type="text/css">
	.st0{fill:#C16CB1;}
</style>
<g>
	<g>
		<g>
			<path d="M77.4,117.7v375c-12.2,0-30.7,1.4-55.7,4.3v-6.4c13-4.7,22.1-15.1,27.2-31c5.1-15.7,7.6-44,7.6-85v-159
				c0-30.8-2.6-53.5-7.9-67.9c-5.3-14.2-14.2-23.5-26.9-27.7v-6.4C42.4,115.8,61,117.2,77.4,117.7z M96.5,492.7v-375
				c21,0,35.5-1.4,51.8-4.3l4.1,6.4c-10,2.6-18.3,10.2-24.9,22.8c-6.8,13-10.2,40-10.2,80.8v169.7c0,36.5,3.6,61.1,10.7,73.6
				c7.1,12.6,15.2,20.5,24.4,23.8v6.4C136.5,494.1,117.8,492.7,96.5,492.7z" class="st0"></path>
		</g>
		<g>
			<path d="M569.6,405.1l-26.6-66.5H430.2l-28.4,66.5l-1.5,4.6c-0.2,0.2-1.7,3.7-4.5,10.4c-4.2,10-6.3,20.3-6.3,30.7
				c0,18.1,8.4,31,25.1,38.6v6.4c-3.4,0-9.3-0.6-17.6-1.8c-11.8-1.7-22.3-2.5-31.7-2.5c-8.6,0-19.1,0.8-31.7,2.5
				c-8.6,1.2-14.3,1.8-17,1.8l2.7-4.9c21.9-13.3,39.1-42.4,57.1-84.1L475.6,176c-7.6-18.3-18-32.5-31.3-42.5
				c-13.3-10-28.8-15.4-46.5-16.4v-6.4l10.5-0.1c9.4,0,22.2,0.7,38.6,2.1c17.1,1.4,28.3,2.1,33.5,2.1l151.1,376.6
				c-19.3,0.5-42.6,1.9-69.7,4.3v-6.4c15.2-3.1,22.7-12.9,22.7-29.3C584.5,447.9,579.5,429.6,569.6,405.1z M441.8,311.8h90.3
				l-43.4-108.6L441.8,311.8z M655.4,491.5L504.4,114.9h29.3c4,12.4,9.6,28,16.8,46.8c8,20.3,12.5,32.3,13.5,36.1
				c1,2.1,1.9,4.6,2.7,7.5l70.3,174c24.5,60.5,50.6,97.2,78.4,110.1v6.4C688.1,493,668.2,491.5,655.4,491.5z" class="st0"></path>
		</g>
		<path d="M282.5,313.5l-44.3-108.1l-13.4-27c-7.7-18.3-18.3-32.3-31.6-42.2c-13.3-9.8-29.4-15.3-47.2-16l2.2-6.8
			l8.8,0.4c9.4-0.1,22.2,0.5,38.6,1.7c17.2,1.2,28.3,1.8,33.5,1.7l154.2,374.8c-19.3,0.7-42.6,2.4-69.7,5.1l-0.1-6.4
			c15.1-3.3,22.6-13.1,22.5-29.6c-0.1-12.2-5.2-30.4-15.4-54.9l-27.2-66.1L282.5,313.5z" class="st0"></path>
		<path d="M343.4,395.1l-5-173.5c0-24.5-2.5-43.6-4.9-56.8c-2.4-12.5-7.3-23-14.6-31.5c-7.4-8.2-16.8-13.7-28.2-16.3
			v-6.4c0.2,0,3.2,0.4,9,1.1c22.4,2.1,37.6,3.2,45.7,3.2c7.4,0,24.9-1.4,52.6-4.2v6.4c-8.9,1.7-16.7,6.7-23.3,15.2
			c-6.5,8-10.9,17.9-13.3,29.7c-2.4,12-3.6,28.9-3.6,50.6l5.9,231.4" class="st0"></path>
	</g>
	<g>
		<path d="M16.7,576.2v-5.1c2.2,0.7,4.2,1.1,5.9,1.1c1.2,0,2.2-0.2,3-0.6c0.8-0.4,1.5-1.1,2-2.1c0.5-1,0.8-2.9,0.8-5.7
			V528h5.8v35.5c0,4.7-1.1,8-3.3,10.1c-2.2,2.1-5.3,3.1-9.3,3.1C20.4,576.8,18.7,576.6,16.7,576.2z" class="st0"></path>
		<path d="M148.6,568.7V528h22.8v4.3h-17v13.1h14.3v4.3h-14.3v14.7h18.2v4.3H148.6z" class="st0"></path>
		<path d="M288.5,568.7L278,528h5.5l8.4,32.1l7.7-32.1h5.6l7.2,31.7l9-31.7h4.7l-11.4,40.7h-5.7l-7.2-31.4l-7.5,31.4
			H288.5z" class="st0"></path>
		<path d="M435.4,568.7V528h22.8v4.3h-17v13.1h14.3v4.3h-14.3v14.7h18.2v4.3H435.4z" class="st0"></path>
		<path d="M570,568.7V528h5.8v36.4h18.1v4.3H570z" class="st0"></path>
		<path d="M701.7,567.9v-5.7c3.3,1.5,5.7,2.4,7.2,2.7c1.5,0.3,2.9,0.5,4.2,0.5c2.3,0,4.2-0.6,5.5-1.9
			c1.4-1.3,2-2.8,2-4.6c0-1.3-0.4-2.6-1.1-3.7c-0.7-1.1-2.5-2.5-5.4-4.1l-2.8-1.6c-3.8-2.1-6.3-4.1-7.6-5.8
			c-1.3-1.8-1.9-3.7-1.9-5.9c0-1.9,0.5-3.7,1.5-5.4c1-1.7,2.4-3,4.1-4c1.7-1,3.9-1.4,6.5-1.4c3.1,0,6.5,0.5,10,1.6v5.3
			c-3-1.2-5.1-1.9-6.3-2.2c-1.1-0.2-2.3-0.4-3.4-0.4c-2.4,0-4.1,0.6-5.2,1.8c-1.1,1.2-1.7,2.5-1.7,3.8c0,0.9,0.3,1.8,0.8,2.7
			c0.5,0.9,1.3,1.7,2.2,2.3c0.9,0.7,2.2,1.4,3.7,2.3l2.9,1.6c3.8,2.1,6.3,4.1,7.6,5.9c1.3,1.8,1.9,3.9,1.9,6.2
			c0,3.2-1.2,5.9-3.6,8.2s-6,3.5-10.7,3.5c-1.5,0-2.9-0.1-4.2-0.3S704.5,568.7,701.7,567.9z" class="st0"></path>
	</g>
	<path d="M86.1,115.6c-0.1-0.1-0.2-0.2-0.3-0.3C69,96.9,52.3,78.5,35.5,60.1c-1.9-2.1-3.8-4.2-5.8-6.3
		c-0.7-0.7-0.7-1.8-0.2-2.6c7-10.1,13.9-20.2,20.9-30.4c0.6-0.8,1.5-1.3,2.5-1.3c20.1,0,40.3,0,60.4,0c1.9,0,3.8,0,5.7,0
		c1,0,2,0.5,2.6,1.3c7,10.2,14,20.3,21,30.5c0.5,0.7,0.4,1.7-0.2,2.4c-16.7,18.4-33.4,36.7-50.1,55.1c-2,2.2-4,4.4-6.1,6.6
		C86.2,115.4,86.2,115.5,86.1,115.6z M65.6,55.4L86,103c6.8-15.9,13.6-31.7,20.4-47.6H65.6z M106.6,49.1c-0.1-0.3-0.2-0.6-0.3-0.9
		c-3.1-7.1-6.2-14.2-9.3-21.3c-0.2-0.4-0.4-0.7-0.8-0.8c-0.4-0.1-0.8-0.3-1.2-0.3c-4.4,0-8.8,0-13.2-0.1c-1.7,0-3.5,0-5.2,0
		c-0.9,0-1.5,0.4-1.9,1.2c0,0.1-0.1,0.2-0.1,0.3c-2.1,4.8-4.2,9.6-6.3,14.4c-1,2.4-2,4.8-3.1,7.1c0,0.1-0.1,0.2-0.1,0.4
		C79.1,49.1,92.8,49.1,106.6,49.1z M116.1,49c6.2,0,10,0,15.2,0.1c0.7,0,1.3,0,2.1,0c-0.2-0.3-0.3-0.5-0.4-0.7
		c-8-10.9-7.2-10.6-13.2-18.3c-1.7-2.2-2.3-4.9-4.7-4.1c-3.5,1.3-7.3,1-10.9-0.2c-0.4-0.1-0.5-0.1-0.8-0.1c0.2,0.7,0.3,1.3,0.9,1.8
		 M38.6,49c0.3,0,0.6,0.1,0.9,0.1c2.1,0,4.2,0,6.3,0c3.9,0,7.7,0,11.6,0c0.4,0,0.8,0,1-0.3c0.2-0.2,0.4-0.5,0.5-0.8
		c3.1-7,6.1-14,9.1-21c0.2-0.4,0.3-0.9,0.5-1.3c-0.3,0-0.3-0.1-0.7,0.1c-3.5,1.3-7.3,1.3-10.9,0.1c-1.2-0.4-2-0.3-2.6,0.4
		 M132.5,55.3c-0.2,0-0.3,0-0.5,0c-4.7,0-9.5,0-14.2,0c-1,0-2.1,0-3.1,0c-1,0-1.8,0.5-2.2,1.4c0,0.1-0.1,0.2-0.1,0.3
		c-1.2,2.7-2.3,5.4-3.5,8.1c-4.2,9.8-8.4,19.6-12.6,29.4c0,0.1-0.1,0.2-0.1,0.3c0,0.1,0,0.1,0.1,0.2c0,0,0.1,0,0.2,0
		c0.1,0,0.1-0.1,0.2-0.2c11.9-13.1,23.7-26.1,35.6-39.2C132.3,55.5,132.4,55.4,132.5,55.3z M59.3,56.4c-0.3-0.7-1-1.2-1.8-1.2
		c-0.7,0-1.3,0-2,0c-5.2,0-10.3,0-15.5,0c-0.1,0-0.3,0-0.5,0c12,13.2,23.8,26.3,35.8,39.4" class="st0"></path>
</g>
</svg>
